<svg xmlns="http://www.w3.org/2000/svg" version="1.1" xmlns:xlink="http://www.w3.org/1999/xlink" xmlns:svgjs="http://svgjs.dev/svgjs" width="1440" height="560" preserveAspectRatio="none" viewBox="0 0 1440 560"><g mask="url(&quot;#SvgjsMask1030&quot;)" fill="none"><rect width="1440" height="560" x="0" y="0" fill="rgba(248, 245, 240, 1)"></rect><path d="M0,438.263C78.543,415.045,110.256,322.773,176.328,274.372C236.579,230.235,321.224,226.1,368.526,168.3C422.153,102.772,480.477,15.214,454.33,-65.323C427.458,-148.093,305.717,-149.956,244.97,-212.268C189.733,-268.928,186.984,-366.386,119.906,-408.363C46.508,-454.296,-52.165,-482.54,-131.505,-447.866C-210.783,-413.219,-233.157,-313.378,-273.072,-236.618C-304.326,-176.513,-325.176,-115.057,-339.045,-48.747C-353.835,21.967,-369.222,91.728,-356.625,162.865C-341.244,249.725,-328.856,349.157,-259.039,403.072C-188.645,457.433,-85.292,463.477,0,438.263" fill="#d9c9ae"></path><path d="M1440 859.1C1496.348 856.126 1548.167 832.672 1595.954 802.668 1644.154 772.405 1681.491 731.3679999999999 1715.78 685.944 1758.5720000000001 629.256 1835.854 574.633 1820.425 505.303 1804.655 434.442 1706.791 422.196 1647.698 380.029 1604.295 349.058 1567.287 313.332 1519.179 290.34 1462.985 263.484 1406.568 228.69099999999997 1344.625 235.18400000000003 1278.169 242.151 1213.477 275.326 1170.9279999999999 326.848 1128.761 377.90700000000004 1114.351 447.051 1114.972 513.268 1115.54 573.907 1146.444 627.473 1174.251 681.364 1200.777 732.7719999999999 1225.009 787.55 1273.094 819.71 1321.592 852.146 1381.736 862.175 1440 859.1" fill="#ffffff"></path></g><defs><mask id="SvgjsMask1030"><rect width="1440" height="560" fill="#ffffff"></rect></mask></defs></svg>